G04 #@! TF.GenerationSoftware,KiCad,Pcbnew,(5.1.5)-3*
G04 #@! TF.CreationDate,2020-05-03T20:55:51-04:00*
G04 #@! TF.ProjectId,SideCar1.0,53696465-4361-4723-912e-302e6b696361,rev?*
G04 #@! TF.SameCoordinates,Original*
G04 #@! TF.FileFunction,Copper,L2,Bot*
G04 #@! TF.FilePolarity,Positive*
%FSLAX46Y46*%
G04 Gerber Fmt 4.6, Leading zero omitted, Abs format (unit mm)*
G04 Created by KiCad (PCBNEW (5.1.5)-3) date 2020-05-03 20:55:51*
%MOMM*%
%LPD*%
G04 APERTURE LIST*
%ADD10C,1.752600*%
%ADD11R,1.752600X1.752600*%
%ADD12C,2.250000*%
%ADD13C,2.250000*%
%ADD14O,1.600000X1.600000*%
%ADD15R,1.600000X1.600000*%
%ADD16C,0.250000*%
G04 APERTURE END LIST*
D10*
X195738750Y-127476250D03*
X198278750Y-127476250D03*
X200818750Y-127476250D03*
X203358750Y-127476250D03*
X205898750Y-127476250D03*
X208438750Y-99536250D03*
X193427350Y-127476250D03*
X208438750Y-102076250D03*
X208438750Y-104616250D03*
X208438750Y-107156250D03*
X208438750Y-109696250D03*
X208438750Y-112236250D03*
X208438750Y-114776250D03*
X208438750Y-117316250D03*
X208438750Y-119856250D03*
X208438750Y-122396250D03*
X208438750Y-124936250D03*
X208438750Y-127476250D03*
X193198750Y-124936250D03*
X193198750Y-122396250D03*
X193198750Y-119856250D03*
X193198750Y-117316250D03*
X193198750Y-114776250D03*
X193198750Y-112236250D03*
X193198750Y-109696250D03*
X193198750Y-107156250D03*
X193198750Y-104616250D03*
X193198750Y-102076250D03*
D11*
X193198750Y-99536250D03*
D12*
X276987500Y-173950000D03*
D13*
X278447500Y-175260000D02*
X276987500Y-173949998D01*
D12*
X275907500Y-168910000D03*
D13*
X276487500Y-168950000D02*
X275907500Y-168910000D01*
D12*
X276987500Y-135850000D03*
D13*
X278447500Y-137160000D02*
X276987500Y-135849998D01*
D12*
X275907500Y-130810000D03*
D13*
X276487500Y-130850000D02*
X275907500Y-130810000D01*
D12*
X276987500Y-107275000D03*
D13*
X278447500Y-108585000D02*
X276987500Y-107274998D01*
D12*
X275907500Y-102235000D03*
D13*
X276487500Y-102275000D02*
X275907500Y-102235000D01*
D12*
X259437500Y-176975000D03*
D13*
X258127500Y-178435000D02*
X259437502Y-176975000D01*
D12*
X264477500Y-175895000D03*
D13*
X264437500Y-176475000D02*
X264477500Y-175895000D01*
D12*
X259437500Y-157925000D03*
D13*
X258127500Y-159385000D02*
X259437502Y-157925000D01*
D12*
X264477500Y-156845000D03*
D13*
X264437500Y-157425000D02*
X264477500Y-156845000D01*
D12*
X259437500Y-138875000D03*
D13*
X258127500Y-140335000D02*
X259437502Y-138875000D01*
D12*
X264477500Y-137795000D03*
D13*
X264437500Y-138375000D02*
X264477500Y-137795000D01*
D12*
X259437500Y-119825000D03*
D13*
X258127500Y-121285000D02*
X259437502Y-119825000D01*
D12*
X264477500Y-118745000D03*
D13*
X264437500Y-119325000D02*
X264477500Y-118745000D01*
D12*
X259437500Y-100775000D03*
D13*
X258127500Y-102235000D02*
X259437502Y-100775000D01*
D12*
X264477500Y-99695000D03*
D13*
X264437500Y-100275000D02*
X264477500Y-99695000D01*
D12*
X240387500Y-157925000D03*
D13*
X239077500Y-159385000D02*
X240387502Y-157925000D01*
D12*
X245427500Y-156845000D03*
D13*
X245387500Y-157425000D02*
X245427500Y-156845000D01*
D12*
X240387500Y-138875000D03*
D13*
X239077500Y-140335000D02*
X240387502Y-138875000D01*
D12*
X245427500Y-137795000D03*
D13*
X245387500Y-138375000D02*
X245427500Y-137795000D01*
D12*
X240387500Y-119825000D03*
D13*
X239077500Y-121285000D02*
X240387502Y-119825000D01*
D12*
X245427500Y-118745000D03*
D13*
X245387500Y-119325000D02*
X245427500Y-118745000D01*
D12*
X240387500Y-100775000D03*
D13*
X239077500Y-102235000D02*
X240387502Y-100775000D01*
D12*
X245427500Y-99695000D03*
D13*
X245387500Y-100275000D02*
X245427500Y-99695000D01*
D12*
X230862500Y-176975000D03*
D13*
X229552500Y-178435000D02*
X230862502Y-176975000D01*
D12*
X235902500Y-175895000D03*
D13*
X235862500Y-176475000D02*
X235902500Y-175895000D01*
D12*
X221337500Y-157925000D03*
D13*
X220027500Y-159385000D02*
X221337502Y-157925000D01*
D12*
X226377500Y-156845000D03*
D13*
X226337500Y-157425000D02*
X226377500Y-156845000D01*
D12*
X221337500Y-138875000D03*
D13*
X220027500Y-140335000D02*
X221337502Y-138875000D01*
D12*
X226377500Y-137795000D03*
D13*
X226337500Y-138375000D02*
X226377500Y-137795000D01*
D12*
X221337500Y-119825000D03*
D13*
X220027500Y-121285000D02*
X221337502Y-119825000D01*
D12*
X226377500Y-118745000D03*
D13*
X226337500Y-119325000D02*
X226377500Y-118745000D01*
D12*
X221337500Y-100775000D03*
D13*
X220027500Y-102235000D02*
X221337502Y-100775000D01*
D12*
X226377500Y-99695000D03*
D13*
X226337500Y-100275000D02*
X226377500Y-99695000D01*
D12*
X175300000Y-176975000D03*
D13*
X173990000Y-178435000D02*
X175300002Y-176975000D01*
D12*
X180340000Y-175895000D03*
D13*
X180300000Y-176475000D02*
X180340000Y-175895000D01*
D12*
X175300000Y-119825000D03*
D13*
X173990000Y-121285000D02*
X175300002Y-119825000D01*
D12*
X180340000Y-118745000D03*
D13*
X180300000Y-119325000D02*
X180340000Y-118745000D01*
D12*
X175300000Y-100775000D03*
D13*
X173990000Y-102235000D02*
X175300002Y-100775000D01*
D12*
X180340000Y-99695000D03*
D13*
X180300000Y-100275000D02*
X180340000Y-99695000D01*
D12*
X156250000Y-176975000D03*
D13*
X154940000Y-178435000D02*
X156250002Y-176975000D01*
D12*
X161290000Y-175895000D03*
D13*
X161250000Y-176475000D02*
X161290000Y-175895000D01*
D12*
X156250000Y-157925000D03*
D13*
X154940000Y-159385000D02*
X156250002Y-157925000D01*
D12*
X161290000Y-156845000D03*
D13*
X161250000Y-157425000D02*
X161290000Y-156845000D01*
D12*
X156250000Y-119825000D03*
D13*
X154940000Y-121285000D02*
X156250002Y-119825000D01*
D12*
X161290000Y-118745000D03*
D13*
X161250000Y-119325000D02*
X161290000Y-118745000D01*
D12*
X156250000Y-100775000D03*
D13*
X154940000Y-102235000D02*
X156250002Y-100775000D01*
D12*
X161290000Y-99695000D03*
D13*
X161250000Y-100275000D02*
X161290000Y-99695000D01*
D12*
X137200000Y-176975000D03*
D13*
X135890000Y-178435000D02*
X137200002Y-176975000D01*
D12*
X142240000Y-175895000D03*
D13*
X142200000Y-176475000D02*
X142240000Y-175895000D01*
D12*
X137200000Y-119825000D03*
D13*
X135890000Y-121285000D02*
X137200002Y-119825000D01*
D12*
X142240000Y-118745000D03*
D13*
X142200000Y-119325000D02*
X142240000Y-118745000D01*
D12*
X137200000Y-100775000D03*
D13*
X135890000Y-102235000D02*
X137200002Y-100775000D01*
D12*
X142240000Y-99695000D03*
D13*
X142200000Y-100275000D02*
X142240000Y-99695000D01*
D14*
X271462500Y-167798750D03*
D15*
X271462500Y-175418750D03*
D14*
X271462500Y-129698750D03*
D15*
X271462500Y-137318750D03*
D14*
X271462500Y-101123750D03*
D15*
X271462500Y-108743750D03*
D14*
X252412500Y-177323750D03*
D15*
X252412500Y-184943750D03*
D14*
X252412500Y-158273750D03*
D15*
X252412500Y-165893750D03*
D14*
X252412500Y-139223750D03*
D15*
X252412500Y-146843750D03*
D14*
X252412500Y-120173750D03*
D15*
X252412500Y-127793750D03*
D14*
X252412500Y-101123750D03*
D15*
X252412500Y-108743750D03*
D14*
X233362500Y-158273750D03*
D15*
X233362500Y-165893750D03*
D14*
X233362500Y-139223750D03*
D15*
X233362500Y-146843750D03*
D14*
X233362500Y-120173750D03*
D15*
X233362500Y-127793750D03*
D14*
X233362500Y-101123750D03*
D15*
X233362500Y-108743750D03*
D14*
X214312500Y-177323750D03*
D15*
X214312500Y-184943750D03*
D14*
X214312500Y-158273750D03*
D15*
X214312500Y-165893750D03*
D14*
X214312500Y-139223750D03*
D15*
X214312500Y-146843750D03*
D14*
X214312500Y-120173750D03*
D15*
X214312500Y-127793750D03*
D14*
X214312500Y-101123750D03*
D15*
X214312500Y-108743750D03*
D14*
X187325000Y-177323750D03*
D15*
X187325000Y-184943750D03*
D14*
X187325000Y-120173750D03*
D15*
X187325000Y-127793750D03*
D14*
X187325000Y-101123750D03*
D15*
X187325000Y-108743750D03*
D14*
X168275000Y-177323750D03*
D15*
X168275000Y-184943750D03*
D14*
X168275000Y-158273750D03*
D15*
X168275000Y-165893750D03*
D14*
X168275000Y-120173750D03*
D15*
X168275000Y-127793750D03*
D14*
X168275000Y-101123750D03*
D15*
X168275000Y-108743750D03*
D14*
X149225000Y-177323750D03*
D15*
X149225000Y-184943750D03*
D14*
X149225000Y-120173750D03*
D15*
X149225000Y-127793750D03*
D14*
X149225000Y-101123750D03*
D15*
X149225000Y-108743750D03*
D16*
X148376250Y-100275000D02*
X149225000Y-101123750D01*
X142200000Y-100275000D02*
X148376250Y-100275000D01*
X149225000Y-108743750D02*
X168275000Y-108743750D01*
X168275000Y-108743750D02*
X187325000Y-108743750D01*
X214312500Y-108743750D02*
X271462500Y-108743750D01*
X188375000Y-108743750D02*
X188912500Y-108206250D01*
X187325000Y-108743750D02*
X188375000Y-108743750D01*
X188912500Y-108206250D02*
X188912500Y-98425000D01*
X188912500Y-98425000D02*
X189706250Y-97631250D01*
X189706250Y-97631250D02*
X211931250Y-97631250D01*
X211931250Y-97631250D02*
X212725000Y-98425000D01*
X213262500Y-108743750D02*
X214312500Y-108743750D01*
X212725000Y-108206250D02*
X213262500Y-108743750D01*
X212725000Y-98425000D02*
X212725000Y-108206250D01*
X188375000Y-108743750D02*
X188912500Y-109281250D01*
X188912500Y-109281250D02*
X188912500Y-111125000D01*
X190023750Y-112236250D02*
X193198750Y-112236250D01*
X188912500Y-111125000D02*
X190023750Y-112236250D01*
X148376250Y-119325000D02*
X149225000Y-120173750D01*
X142200000Y-119325000D02*
X148376250Y-119325000D01*
X149225000Y-127793750D02*
X168275000Y-127793750D01*
X168275000Y-127793750D02*
X187325000Y-127793750D01*
X214312500Y-127793750D02*
X252412500Y-127793750D01*
X271462500Y-136268750D02*
X271462500Y-137318750D01*
X262987500Y-127793750D02*
X271462500Y-136268750D01*
X252412500Y-127793750D02*
X262987500Y-127793750D01*
X187325000Y-127793750D02*
X187325000Y-129381250D01*
X187325000Y-129381250D02*
X190500000Y-132556250D01*
X190500000Y-132556250D02*
X207168750Y-132556250D01*
X214312500Y-127793750D02*
X214312500Y-129381250D01*
X214312500Y-129381250D02*
X211137500Y-132556250D01*
X211137500Y-132556250D02*
X207168750Y-132556250D01*
X189865000Y-122396250D02*
X193198750Y-122396250D01*
X189706250Y-122237500D02*
X189865000Y-122396250D01*
X188912500Y-122237500D02*
X189706250Y-122237500D01*
X187325000Y-127793750D02*
X187325000Y-123825000D01*
X187325000Y-123825000D02*
X188912500Y-122237500D01*
X148376250Y-176475000D02*
X149225000Y-177323750D01*
X142200000Y-176475000D02*
X148376250Y-176475000D01*
X149225000Y-184943750D02*
X252412500Y-184943750D01*
X167426250Y-100275000D02*
X168275000Y-101123750D01*
X161250000Y-100275000D02*
X167426250Y-100275000D01*
X167426250Y-119325000D02*
X168275000Y-120173750D01*
X161250000Y-119325000D02*
X167426250Y-119325000D01*
X167426250Y-157425000D02*
X168275000Y-158273750D01*
X161250000Y-157425000D02*
X167426250Y-157425000D01*
X168275000Y-165893750D02*
X252412500Y-165893750D01*
X271462500Y-174368750D02*
X271462500Y-175418750D01*
X262987500Y-165893750D02*
X271462500Y-174368750D01*
X252412500Y-165893750D02*
X262987500Y-165893750D01*
X167426250Y-176475000D02*
X168275000Y-177323750D01*
X161250000Y-176475000D02*
X167426250Y-176475000D01*
X186476250Y-100275000D02*
X187325000Y-101123750D01*
X180300000Y-100275000D02*
X186476250Y-100275000D01*
X186476250Y-119325000D02*
X187325000Y-120173750D01*
X180300000Y-119325000D02*
X186476250Y-119325000D01*
X186476250Y-176475000D02*
X187007500Y-177006250D01*
X180300000Y-176475000D02*
X186476250Y-176475000D01*
X215112499Y-100323751D02*
X214312500Y-101123750D01*
X216111251Y-99324999D02*
X215112499Y-100323751D01*
X225387499Y-99324999D02*
X216111251Y-99324999D01*
X226337500Y-100275000D02*
X225387499Y-99324999D01*
X216111251Y-118374999D02*
X215112499Y-119373751D01*
X225387499Y-118374999D02*
X216111251Y-118374999D01*
X215112499Y-119373751D02*
X214312500Y-120173750D01*
X226337500Y-119325000D02*
X225387499Y-118374999D01*
X215112499Y-138423751D02*
X214312500Y-139223750D01*
X216111251Y-137424999D02*
X215112499Y-138423751D01*
X225387499Y-137424999D02*
X216111251Y-137424999D01*
X226337500Y-138375000D02*
X225387499Y-137424999D01*
X214312500Y-146843750D02*
X252412500Y-146843750D01*
X225901250Y-156368750D02*
X226377500Y-156845000D01*
X217487500Y-156368750D02*
X225901250Y-156368750D01*
X214312500Y-158273750D02*
X215582500Y-158273750D01*
X215582500Y-158273750D02*
X217487500Y-156368750D01*
X234912499Y-175524999D02*
X235862500Y-176475000D01*
X235426250Y-175418750D02*
X235902500Y-175895000D01*
X224631250Y-175418750D02*
X235426250Y-175418750D01*
X214312500Y-177323750D02*
X222726250Y-177323750D01*
X222726250Y-177323750D02*
X224631250Y-175418750D01*
X234162499Y-100323751D02*
X233362500Y-101123750D01*
X235161251Y-99324999D02*
X234162499Y-100323751D01*
X244437499Y-99324999D02*
X235161251Y-99324999D01*
X245387500Y-100275000D02*
X244437499Y-99324999D01*
X234162499Y-119373751D02*
X233362500Y-120173750D01*
X244437499Y-118374999D02*
X235161251Y-118374999D01*
X235161251Y-118374999D02*
X234162499Y-119373751D01*
X245387500Y-119325000D02*
X244437499Y-118374999D01*
X234162499Y-138423751D02*
X233362500Y-139223750D01*
X235161251Y-137424999D02*
X234162499Y-138423751D01*
X244437499Y-137424999D02*
X235161251Y-137424999D01*
X245387500Y-138375000D02*
X244437499Y-137424999D01*
X244951250Y-156368750D02*
X245427500Y-156845000D01*
X236537500Y-156368750D02*
X244951250Y-156368750D01*
X233362500Y-158273750D02*
X234632500Y-158273750D01*
X234632500Y-158273750D02*
X236537500Y-156368750D01*
X264001250Y-99218750D02*
X264477500Y-99695000D01*
X252412500Y-101123750D02*
X254317500Y-99218750D01*
X254317500Y-99218750D02*
X264001250Y-99218750D01*
X252412500Y-120173750D02*
X254317500Y-118268750D01*
X254317500Y-118268750D02*
X263525000Y-118268750D01*
X263525000Y-118412500D02*
X264437500Y-119325000D01*
X263525000Y-118268750D02*
X263525000Y-118412500D01*
X264001250Y-137318750D02*
X264477500Y-137795000D01*
X252412500Y-139223750D02*
X254317500Y-137318750D01*
X254317500Y-137318750D02*
X264001250Y-137318750D01*
X263525000Y-156368750D02*
X263525000Y-156512500D01*
X255587500Y-156368750D02*
X263525000Y-156368750D01*
X252412500Y-158273750D02*
X253682500Y-158273750D01*
X263525000Y-156512500D02*
X264437500Y-157425000D01*
X253682500Y-158273750D02*
X255587500Y-156368750D01*
X264001250Y-175418750D02*
X264477500Y-175895000D01*
X256381250Y-175418750D02*
X264001250Y-175418750D01*
X252412500Y-177323750D02*
X254476250Y-177323750D01*
X254476250Y-177323750D02*
X256381250Y-175418750D01*
X274796250Y-101123750D02*
X275907500Y-102235000D01*
X271462500Y-101123750D02*
X274796250Y-101123750D01*
X274796250Y-129698750D02*
X275907500Y-130810000D01*
X271462500Y-129698750D02*
X274796250Y-129698750D01*
X272573750Y-168910000D02*
X275907500Y-168910000D01*
X271462500Y-167798750D02*
X272573750Y-168910000D01*
X190182500Y-114776250D02*
X193198750Y-114776250D01*
X142725000Y-114300000D02*
X189706250Y-114300000D01*
X135890000Y-121285000D02*
X135890000Y-121135000D01*
X189706250Y-114300000D02*
X190182500Y-114776250D01*
X135890000Y-121135000D02*
X142725000Y-114300000D01*
X154940000Y-121285000D02*
X161131250Y-115093750D01*
X161131250Y-115093750D02*
X187325000Y-115093750D01*
X187325000Y-115093750D02*
X189706250Y-117475000D01*
X189865000Y-117316250D02*
X193198750Y-117316250D01*
X189706250Y-117475000D02*
X189865000Y-117316250D01*
X173990000Y-121285000D02*
X179387500Y-115887500D01*
X179387500Y-115887500D02*
X185737500Y-115887500D01*
X185737500Y-115887500D02*
X189706250Y-119856250D01*
X189706250Y-119856250D02*
X193198750Y-119856250D01*
X208438750Y-119856250D02*
X211137500Y-119856250D01*
X211137500Y-119856250D02*
X213518750Y-122237500D01*
X213518750Y-122237500D02*
X216693750Y-122237500D01*
X216693750Y-122237500D02*
X217487500Y-121443750D01*
X217487500Y-121443750D02*
X219868750Y-121443750D01*
X238125000Y-122237500D02*
X239077500Y-121285000D01*
X230981250Y-121443750D02*
X231775000Y-122237500D01*
X208438750Y-117316250D02*
X212090000Y-117316250D01*
X212090000Y-117316250D02*
X212725000Y-116681250D01*
X231775000Y-122237500D02*
X238125000Y-122237500D01*
X212725000Y-116681250D02*
X228600000Y-116681250D01*
X228600000Y-116681250D02*
X230981250Y-119062500D01*
X230981250Y-119062500D02*
X230981250Y-121443750D01*
X254793750Y-122237500D02*
X255746250Y-121285000D01*
X212407500Y-114776250D02*
X212725000Y-115093750D01*
X250031250Y-118268750D02*
X250031250Y-121443750D01*
X208438750Y-114776250D02*
X212407500Y-114776250D01*
X255746250Y-121285000D02*
X258127500Y-121285000D01*
X250031250Y-121443750D02*
X250825000Y-122237500D01*
X212725000Y-115093750D02*
X246856250Y-115093750D01*
X250825000Y-122237500D02*
X254793750Y-122237500D01*
X246856250Y-115093750D02*
X250031250Y-118268750D01*
X274796250Y-112236250D02*
X278447500Y-108585000D01*
X208438750Y-112236250D02*
X274796250Y-112236250D01*
X203358750Y-104616250D02*
X208438750Y-99536250D01*
X193198750Y-104616250D02*
X203358750Y-104616250D01*
X205898750Y-102076250D02*
X208438750Y-99536250D01*
X193198750Y-102076250D02*
X205898750Y-102076250D01*
M02*
