M48
; DRILL file {KiCad (5.1.5)-3} date 5/3/2020 8:55:50 PM
; FORMAT={-:-/ absolute / inch / decimal}
; #@! TF.CreationDate,2020-05-03T20:55:50-04:00
; #@! TF.GenerationSoftware,Kicad,Pcbnew,(5.1.5)-3
; #@! TF.FileFunction,Plated,1,2,PTH
FMAT,2
INCH
T1C0.0315
T2C0.0430
T3C0.0579
%
G90
G05
T1
X9.9375Y-6.9813
X9.9375Y-7.2812
X10.6875Y-3.9812
X10.6875Y-4.2812
X6.625Y-3.9812
X6.625Y-4.2812
X8.4375Y-6.2313
X8.4375Y-6.5312
X8.4375Y-6.9813
X8.4375Y-7.2812
X8.4375Y-4.7313
X8.4375Y-5.0312
X9.9375Y-5.4813
X9.9375Y-5.7812
X9.1875Y-5.4813
X9.1875Y-5.7812
X9.9375Y-4.7313
X9.9375Y-5.0312
X9.9375Y-6.2313
X9.9375Y-6.5312
X6.625Y-4.7313
X6.625Y-5.0312
X6.625Y-6.9813
X6.625Y-7.2812
X10.6875Y-6.6063
X10.6875Y-6.9062
X9.1875Y-6.2313
X9.1875Y-6.5312
X8.4375Y-3.9812
X8.4375Y-4.2812
X6.625Y-6.2313
X6.625Y-6.5312
X9.1875Y-4.7313
X9.1875Y-5.0312
X9.9375Y-3.9812
X9.9375Y-4.2812
X7.375Y-6.9813
X7.375Y-7.2812
X5.875Y-6.9813
X5.875Y-7.2812
X10.6875Y-5.1063
X10.6875Y-5.4062
X8.4375Y-5.4813
X8.4375Y-5.7812
X7.375Y-4.7313
X7.375Y-5.0312
X5.875Y-4.7313
X5.875Y-5.0312
X9.1875Y-3.9812
X9.1875Y-4.2812
X7.375Y-3.9812
X7.375Y-4.2812
X5.875Y-3.9812
X5.875Y-4.2812
T2
X7.6063Y-3.9187
X7.6063Y-4.0187
X7.6063Y-4.1187
X7.6063Y-4.2188
X7.6063Y-4.3187
X7.6063Y-4.4188
X7.6063Y-4.5187
X7.6063Y-4.6187
X7.6063Y-4.7188
X7.6063Y-4.8187
X7.6063Y-4.9188
X7.6152Y-5.0187
X7.7062Y-5.0187
X7.8062Y-5.0187
X7.9062Y-5.0187
X8.0062Y-5.0187
X8.1062Y-5.0187
X8.2062Y-3.9187
X8.2062Y-4.0187
X8.2062Y-4.1187
X8.2062Y-4.2188
X8.2062Y-4.3187
X8.2062Y-4.4188
X8.2062Y-4.5187
X8.2062Y-4.6187
X8.2062Y-4.7188
X8.2062Y-4.8187
X8.2062Y-4.9188
X8.2062Y-5.0187
T3
X9.0375Y-7.025
X9.0891Y-6.9675
X9.2859Y-6.9478
X9.2875Y-6.925
X8.6625Y-6.275
X8.7141Y-6.2175
X8.9109Y-6.1978
X8.9125Y-6.175
X5.35Y-7.025
X5.4016Y-6.9675
X5.5984Y-6.9478
X5.6Y-6.925
X10.1625Y-4.025
X10.2141Y-3.9675
X10.4109Y-3.9478
X10.4125Y-3.925
X10.8625Y-5.15
X10.8853Y-5.1516
X10.905Y-5.3484
X10.9625Y-5.4
X10.8625Y-4.025
X10.8853Y-4.0266
X10.905Y-4.2234
X10.9625Y-4.275
X8.6625Y-5.525
X8.7141Y-5.4675
X8.9109Y-5.4478
X8.9125Y-5.425
X5.35Y-4.025
X5.4016Y-3.9675
X5.5984Y-3.9478
X5.6Y-3.925
X10.1625Y-6.275
X10.2141Y-6.2175
X10.4109Y-6.1978
X10.4125Y-6.175
X10.1625Y-5.525
X10.2141Y-5.4675
X10.4109Y-5.4478
X10.4125Y-5.425
X6.1Y-4.775
X6.1516Y-4.7175
X6.3484Y-4.6978
X6.35Y-4.675
X9.4125Y-4.025
X9.4641Y-3.9675
X9.6609Y-3.9478
X9.6625Y-3.925
X8.6625Y-4.775
X8.7141Y-4.7175
X8.9109Y-4.6978
X8.9125Y-4.675
X8.6625Y-4.025
X8.7141Y-3.9675
X8.9109Y-3.9478
X8.9125Y-3.925
X5.35Y-4.775
X5.4016Y-4.7175
X5.5984Y-4.6978
X5.6Y-4.675
X6.1Y-6.275
X6.1516Y-6.2175
X6.3484Y-6.1978
X6.35Y-6.175
X6.85Y-7.025
X6.9016Y-6.9675
X7.0984Y-6.9478
X7.1Y-6.925
X9.4125Y-4.775
X9.4641Y-4.7175
X9.6609Y-4.6978
X9.6625Y-4.675
X10.8625Y-6.65
X10.8853Y-6.6516
X10.905Y-6.8484
X10.9625Y-6.9
X9.4125Y-5.525
X9.4641Y-5.4675
X9.6609Y-5.4478
X9.6625Y-5.425
X6.85Y-4.775
X6.9016Y-4.7175
X7.0984Y-4.6978
X7.1Y-4.675
X6.85Y-4.025
X6.9016Y-3.9675
X7.0984Y-3.9478
X7.1Y-3.925
X10.1625Y-7.025
X10.2141Y-6.9675
X10.4109Y-6.9478
X10.4125Y-6.925
X9.4125Y-6.275
X9.4641Y-6.2175
X9.6609Y-6.1978
X9.6625Y-6.175
X6.1Y-4.025
X6.1516Y-3.9675
X6.3484Y-3.9478
X6.35Y-3.925
X6.1Y-7.025
X6.1516Y-6.9675
X6.3484Y-6.9478
X6.35Y-6.925
X10.1625Y-4.775
X10.2141Y-4.7175
X10.4109Y-4.6978
X10.4125Y-4.675
T0
M30
