G04 #@! TF.GenerationSoftware,KiCad,Pcbnew,(5.1.5)-3*
G04 #@! TF.CreationDate,2020-05-03T20:55:52-04:00*
G04 #@! TF.ProjectId,SideCar1.0,53696465-4361-4723-912e-302e6b696361,rev?*
G04 #@! TF.SameCoordinates,Original*
G04 #@! TF.FileFunction,Profile,NP*
%FSLAX46Y46*%
G04 Gerber Fmt 4.6, Leading zero omitted, Abs format (unit mm)*
G04 Created by KiCad (PCBNEW (5.1.5)-3) date 2020-05-03 20:55:52*
%MOMM*%
%LPD*%
G04 APERTURE LIST*
%ADD10C,0.050000*%
G04 APERTURE END LIST*
D10*
X226218750Y-192087500D02*
X194468750Y-192087500D01*
X226218750Y-195262500D02*
X226218750Y-192087500D01*
X194468750Y-195262500D02*
X226218750Y-195262500D01*
X194468750Y-192087500D02*
X194468750Y-195262500D01*
X227012500Y-195262500D02*
X227012500Y-192087500D01*
X230981250Y-192087500D02*
X230981250Y-195262500D01*
X230187500Y-192087500D02*
X230981250Y-192087500D01*
X227012500Y-192087500D02*
X227806250Y-192087500D01*
X232568750Y-195262500D02*
X231775000Y-195262500D01*
X228600000Y-192087500D02*
X229393750Y-192087500D01*
X232568750Y-192087500D02*
X232568750Y-195262500D01*
X229393750Y-195262500D02*
X228600000Y-195262500D01*
X227806250Y-192087500D02*
X227806250Y-195262500D01*
X229393750Y-192087500D02*
X229393750Y-195262500D01*
X231775000Y-195262500D02*
X231775000Y-192087500D01*
X228600000Y-195262500D02*
X228600000Y-192087500D01*
X227806250Y-195262500D02*
X227012500Y-195262500D01*
X230981250Y-195262500D02*
X230187500Y-195262500D01*
X231775000Y-192087500D02*
X232568750Y-192087500D01*
X230187500Y-195262500D02*
X230187500Y-192087500D01*
X188118750Y-195262500D02*
X188118750Y-192087500D01*
X192087500Y-192087500D02*
X192087500Y-195262500D01*
X191293750Y-192087500D02*
X192087500Y-192087500D01*
X188118750Y-192087500D02*
X188912500Y-192087500D01*
X193675000Y-195262500D02*
X192881250Y-195262500D01*
X189706250Y-192087500D02*
X190500000Y-192087500D01*
X193675000Y-192087500D02*
X193675000Y-195262500D01*
X190500000Y-195262500D02*
X189706250Y-195262500D01*
X188912500Y-192087500D02*
X188912500Y-195262500D01*
X190500000Y-192087500D02*
X190500000Y-195262500D01*
X192881250Y-195262500D02*
X192881250Y-192087500D01*
X189706250Y-195262500D02*
X189706250Y-192087500D01*
X188912500Y-195262500D02*
X188118750Y-195262500D01*
X192087500Y-195262500D02*
X191293750Y-195262500D01*
X192881250Y-192087500D02*
X193675000Y-192087500D01*
X191293750Y-195262500D02*
X191293750Y-192087500D01*
X233362500Y-192087500D02*
X262731250Y-192087500D01*
X262731250Y-195262500D02*
X238125000Y-195262500D01*
X262731250Y-192087500D02*
X262731250Y-195262500D01*
X233362500Y-192087500D02*
X233362500Y-195262500D01*
X233362500Y-195262500D02*
X238125000Y-195262500D01*
X187325000Y-195262500D02*
X162718750Y-195262500D01*
X187325000Y-192087500D02*
X187325000Y-195262500D01*
X157956250Y-192087500D02*
X187325000Y-192087500D01*
X264318750Y-195262500D02*
X264318750Y-192087500D01*
X263525000Y-195262500D02*
X264318750Y-195262500D01*
X263525000Y-192087500D02*
X263525000Y-195262500D01*
X264318750Y-192087500D02*
X263525000Y-192087500D01*
X265906250Y-192881250D02*
X265906250Y-192087500D01*
X265906250Y-195262500D02*
X265906250Y-192881250D01*
X265112500Y-195262500D02*
X265906250Y-195262500D01*
X265112500Y-192087500D02*
X265112500Y-195262500D01*
X265906250Y-192087500D02*
X265112500Y-192087500D01*
X267493750Y-195262500D02*
X267493750Y-192087500D01*
X266700000Y-195262500D02*
X267493750Y-195262500D01*
X266700000Y-192087500D02*
X266700000Y-195262500D01*
X267493750Y-192087500D02*
X266700000Y-192087500D01*
X269081250Y-195262500D02*
X269081250Y-192087500D01*
X268287500Y-195262500D02*
X269081250Y-195262500D01*
X268287500Y-192087500D02*
X268287500Y-195262500D01*
X269081250Y-192087500D02*
X268287500Y-192087500D01*
X269875000Y-195262500D02*
X295275000Y-195262500D01*
X269875000Y-192087500D02*
X269875000Y-195262500D01*
X295275000Y-192087500D02*
X269875000Y-192087500D01*
X157956250Y-195262500D02*
X162718750Y-195262500D01*
X157956250Y-192087500D02*
X157956250Y-195262500D01*
X156368750Y-195262500D02*
X156368750Y-192087500D01*
X157162500Y-195262500D02*
X156368750Y-195262500D01*
X157162500Y-192087500D02*
X157162500Y-195262500D01*
X156368750Y-192087500D02*
X157162500Y-192087500D01*
X154781250Y-195262500D02*
X154781250Y-192087500D01*
X155575000Y-195262500D02*
X154781250Y-195262500D01*
X155575000Y-192087500D02*
X155575000Y-195262500D01*
X154781250Y-192087500D02*
X155575000Y-192087500D01*
X153193750Y-195262500D02*
X153193750Y-192087500D01*
X153987500Y-195262500D02*
X153193750Y-195262500D01*
X153987500Y-192087500D02*
X153987500Y-195262500D01*
X153193750Y-192087500D02*
X153987500Y-192087500D01*
X152400000Y-195262500D02*
X151606250Y-195262500D01*
X152400000Y-192087500D02*
X152400000Y-195262500D01*
X151606250Y-192087500D02*
X152400000Y-192087500D01*
X151606250Y-195262500D02*
X151606250Y-192087500D01*
X150812500Y-192087500D02*
X150812500Y-195262500D01*
X125412500Y-192087500D02*
X150812500Y-192087500D01*
X125412500Y-195262500D02*
X150812500Y-195262500D01*
X295275000Y-227012500D02*
X295275000Y-249237500D01*
X295275000Y-292100000D02*
X293687500Y-292100000D01*
X295275000Y-249237500D02*
X295275000Y-292100000D01*
X125412500Y-214312500D02*
X125412500Y-265112500D01*
X125412500Y-265112500D02*
X125412500Y-292100000D01*
X293687500Y-292100000D02*
X127000000Y-292100000D01*
X295275000Y-195262500D02*
X295275000Y-209550000D01*
X125412500Y-195262500D02*
X125412500Y-214312500D01*
X295275000Y-209550000D02*
X295275000Y-227012500D01*
X125412500Y-292100000D02*
X127000000Y-292100000D01*
X295275000Y-149225000D02*
X295275000Y-192087500D01*
X295275000Y-127000000D02*
X295275000Y-149225000D01*
X295275000Y-109537500D02*
X295275000Y-127000000D01*
X295275000Y-95250000D02*
X295275000Y-109537500D01*
X293687500Y-95250000D02*
X295275000Y-95250000D01*
X125412500Y-165100000D02*
X125412500Y-192087500D01*
X125412500Y-114300000D02*
X125412500Y-165100000D01*
X125412500Y-95250000D02*
X125412500Y-114300000D01*
X127000000Y-95250000D02*
X125412500Y-95250000D01*
X127000000Y-95250000D02*
X293687500Y-95250000D01*
M02*
