M48
; DRILL file {KiCad (5.1.5)-3} date 5/3/2020 8:55:50 PM
; FORMAT={-:-/ absolute / inch / decimal}
; #@! TF.CreationDate,2020-05-03T20:55:50-04:00
; #@! TF.GenerationSoftware,Kicad,Pcbnew,(5.1.5)-3
; #@! TF.FileFunction,NonPlated,1,2,NPTH
FMAT,2
INCH
T1C0.0689
T2C0.0827
T3C0.1200
T4C0.1570
%
G90
G05
T1
X11.0625Y-6.55
X11.0625Y-6.95
X9.3625Y-5.625
X9.7625Y-5.625
X6.8Y-4.875
X7.2Y-4.875
X6.8Y-4.125
X7.2Y-4.125
X10.1125Y-7.125
X10.5125Y-7.125
X9.3625Y-6.375
X9.7625Y-6.375
X6.05Y-4.125
X6.45Y-4.125
X6.05Y-7.125
X6.45Y-7.125
X10.1125Y-4.875
X10.5125Y-4.875
X8.9875Y-7.125
X9.3875Y-7.125
X8.6125Y-6.375
X9.0125Y-6.375
X5.3Y-7.125
X5.7Y-7.125
X10.1125Y-4.125
X10.5125Y-4.125
X11.0625Y-5.05
X11.0625Y-5.45
X11.0625Y-3.925
X11.0625Y-4.325
X8.6125Y-5.625
X9.0125Y-5.625
X5.3Y-4.125
X5.7Y-4.125
X10.1125Y-6.375
X10.5125Y-6.375
X10.1125Y-5.625
X10.5125Y-5.625
X6.05Y-4.875
X6.45Y-4.875
X9.3625Y-4.125
X9.7625Y-4.125
X8.6125Y-4.875
X9.0125Y-4.875
X8.6125Y-4.125
X9.0125Y-4.125
X5.3Y-4.875
X5.7Y-4.875
X6.05Y-6.375
X6.45Y-6.375
X6.8Y-7.125
X7.2Y-7.125
X9.3625Y-4.875
X9.7625Y-4.875
T2
X11.5312Y-7.7812
X11.5312Y-5.625
X11.5312Y-7.4688
X5.0312Y-7.4688
X11.5312Y-11.4062
X5.0312Y-3.8438
X8.2812Y-5.625
X11.5312Y-3.8438
X5.0312Y-7.7812
X5.0312Y-5.625
X8.2812Y-9.5625
X5.0312Y-9.5625
X8.2812Y-11.4062
X8.2812Y-7.4688
X11.5312Y-9.5625
X5.0312Y-11.4062
T3
X10.7875Y-6.28
X10.7875Y-7.22
X8.7175Y-6.85
X9.6575Y-6.85
X10.7875Y-4.78
X10.7875Y-5.72
T4
X8.8125Y-4.875
X8.8125Y-4.125
X5.5Y-4.875
X6.25Y-6.375
X7.0Y-7.125
X9.5625Y-4.875
X11.0625Y-6.75
X11.3875Y-6.28
X11.3875Y-7.22
X9.5625Y-5.625
X7.0Y-4.875
X7.0Y-4.125
X10.3125Y-7.125
X9.5625Y-6.375
X6.25Y-4.125
X6.25Y-7.125
X10.3125Y-4.875
X8.7175Y-7.45
X9.1875Y-7.125
X9.6575Y-7.45
X8.8125Y-6.375
X5.5Y-7.125
X10.3125Y-4.125
X11.0625Y-5.25
X11.3875Y-4.78
X11.3875Y-5.72
X11.0625Y-4.125
X8.8125Y-5.625
X5.5Y-4.125
X10.3125Y-6.375
X10.3125Y-5.625
X6.25Y-4.875
X9.5625Y-4.125
T0
M30
